<?xml version="1.0" encoding="UTF-8"?>
<svg width="24px" height="24px" viewBox="0 0 24 24" version="1.1" xmlns="http://www.w3.org/2000/svg" xmlns:xlink="http://www.w3.org/1999/xlink">
    <!-- Generator: Sketch 52.6 (67491) - http://www.bohemiancoding.com/sketch -->
    <title>icon/informational-32</title>
    <desc>Created with Sketch.</desc>
    <g id="Phases_1,2,3" stroke="none" stroke-width="1" fill="none" fill-rule="evenodd">
        <g id="V2.1-Important-Notice" transform="translate(-420.000000, -630.000000)">
            <g id="alerts/warning/desktop/header-body" transform="translate(404.000000, 606.000000)">
                <g id="Background">
                    <g id="icon/informational-32" transform="translate(16.000000, 24.000000)">
                        <path d="M12,0 C5.4,0 0,5.4 0,12 C0,18.6 5.4,24 12,24 C18.6,24 24,18.6 24,12 C24,5.4 18.6,0 12,0 Z" id="Shape" fill="#456B86" fill-rule="nonzero"></path>
                        <path d="M11.475,16.0499634 L11.475,10.8749634 L10.35,10.8749634 C9.975,10.8749634 9.75,10.5749634 9.75,10.2749634 C9.75,9.89996338 10.05,9.67496338 10.35,9.67496338 L12.15,9.67496338 C12.525,9.67496338 12.75,9.97496338 12.75,10.2749634 L12.75,16.0499634 L13.6785714,16.0499634 C14.0357143,16.0499634 14.25,16.3499634 14.25,16.6499634 C14.25,16.9499634 13.9642857,17.2499634 13.6785714,17.2499634 L10.3214286,17.2499634 C9.96428571,17.2499634 9.75,16.9499634 9.75,16.6499634 C9.75,16.2749634 10.0357143,16.0499634 10.3214286,16.0499634 L11.475,16.0499634 Z M12.0000367,7.80000007 C11.5029804,7.80000007 11.1000366,7.39705633 11.1000366,6.90000004 C11.1000366,6.40294374 11.5029804,6 12.0000367,6 C12.497093,6 12.9000367,6.40294374 12.9000367,6.90000004 C12.9000367,7.39705633 12.497093,7.80000007 12.0000367,7.80000007 Z" id="Combined-Shape" fill="#FFFFFF"></path>
                    </g>
                </g>
            </g>
        </g>
    </g>
</svg>